<?xml version="1.0" encoding="utf-8" ?><svg xmlns="http://www.w3.org/2000/svg" xmlns:xlink="http://www.w3.org/1999/xlink" width="1792" height="2432" viewBox="0 0 1792 2432"><path fill="#ffffff00" d="M0 0L1792 0L1792 2432L0 2432L0 0Z"/><path fill="#1D1D1C" d="M732.978 573.926C739.667 573.641 746.442 574.388 752.794 577.341C779.978 589.98 807.118 604.979 833.9 619.163L969.794 691.064L1041.99 729.2C1059.66 738.463 1076.49 745.769 1092.87 758.987C1145.97 801.827 1136.51 871.615 1136.28 942.878L1135.95 1129.01L1135.76 1542.02C1135.73 1609.82 1135.94 1677.64 1135.64 1745.43C1135.51 1776.28 1119.9 1792.29 1100.44 1802.45C1089.92 1807.94 1078.83 1816 1067.74 1819.12C1059.99 1819.71 1053.53 1819.36 1046.07 1815.72C1022.23 1804.1 998.36 1790.76 974.82 1778.08L854.355 1713.86L763.157 1665.23C719.653 1641.98 670.716 1624.24 670.511 1547.59C670.447 1523.64 670.588 1499.56 670.615 1475.61L670.677 1286.63L670.674 851.111C670.721 782.717 670.152 714.038 670.782 645.605C671.359 633.025 670.998 623.013 676.447 612.185C685.889 593.426 716.796 577.811 732.978 573.926Z"/><path fill="#EAE9E5" d="M703.063 594.099C724.86 592.493 756.348 612.407 777.51 623.486L871.667 673.44L974.42 727.501C997.611 739.604 1020.29 751.624 1043.36 764.564C1071.7 780.458 1097.96 813.096 1098.7 857.701C1099.5 905.015 1098.92 953.462 1098.9 1001.06L1098.93 1278.21L1098.92 1602.52C1098.91 1647.62 1098.82 1692.86 1099.02 1737.95C1099.18 1774.33 1099.15 1800.52 1069.59 1814.98C1050.58 1819.68 996.167 1785.61 974.69 1774.1L848.087 1706.55L763.168 1661.21C724.12 1640.58 676.111 1622.67 674.033 1554.22C673.172 1525.84 673.853 1495.93 673.86 1467.47L673.9 1272.93L673.872 840.997L673.892 717.705C673.839 693.308 673.621 668.821 673.904 644.442C674.106 627.02 678.43 608.822 690.326 599.974C694.787 596.657 698.175 595.617 703.063 594.099Z"/><path fill="#1D1D1C" d="M710.159 603.557C728.057 601.904 767.837 627.238 786.175 637.084L899.579 697.637L1001.05 751.606C1041.13 772.917 1090.5 786.606 1090.49 858.27C1090.48 882.476 1090.47 906.836 1090.46 931.049L1090.34 1127.94L1090.25 1547.9L1090.48 1706.82C1090.42 1725.48 1090.66 1744.2 1090.41 1762.87C1090.07 1788.84 1080.26 1799.02 1062.88 1805.21C1055.18 1805.7 1051.04 1803.95 1043.81 1800.45C1017.69 1787.8 991.687 1773.63 965.877 1759.85L840.982 1693.28L761.209 1650.83C726.235 1632.17 683.284 1615.43 681.888 1554.02C681.331 1529.46 681.785 1504.26 681.809 1479.66L681.945 1306.16L681.894 857.45L682.004 714.391C682.012 691.51 681.798 668.575 681.963 645.701C682.151 619.531 692.438 608.411 710.159 603.557Z"/><path fill="#EAE9E5" d="M710.218 607.181C721.916 606.382 728.197 609.761 738.864 615.546C753.872 623.684 768.925 631.775 783.96 639.824L895.015 698.972L997.986 753.865C1017.27 764.158 1037.69 773.1 1056.08 786.06C1070.1 795.94 1080.36 814.189 1084.93 834.68C1089.46 855.035 1087.06 925.792 1087.03 950.39L1086.92 1159.39L1086.93 1557.41C1086.95 1625.02 1087.03 1692.64 1086.93 1760.26C1086.9 1784.32 1079.46 1795.13 1062.54 1801.6C1047.57 1802.14 986.407 1766.84 968.1 1757.07L843.455 1690.47L761.576 1646.96C736.459 1633.57 693.368 1616.22 686.97 1571.97C683.283 1546.47 685.149 1504.24 685.154 1476.7L685.192 1295.04L685.148 858.547L685.282 718.945C685.268 694.235 685.185 669.379 685.205 644.671C685.211 638.009 686.745 629.333 689.481 623.747C694.646 613.201 701.707 609.742 710.218 607.181Z"/><path fill="#1D1D1C" d="M720.545 661.668C726.82 660.844 730.753 660.501 736.81 663.655C756.811 674.067 776.752 684.692 796.71 695.253L908.214 754.164L1003.48 804.459C1021.37 813.888 1056 829.295 1071.18 844.952C1083.31 857.468 1086.16 889.636 1084.82 908.616C1084.14 918.178 1087.09 939.504 1081.5 946.437C1076.22 949.221 1072.79 946.677 1067.74 943.946C1044.97 933.643 1012.85 915.188 989.886 903.023L861.441 835.657L762.633 784.058C744.353 774.511 726.143 764.768 708.005 754.585C698.626 749.269 700.636 727.331 700.387 715.826C699.822 689.763 700.447 671.667 720.545 661.668Z"/><path fill="#EAE9E5" d="M1027.82 849.145C1040.81 848.78 1048.61 856.029 1055.64 870.599C1061.03 881.754 1062.26 896.338 1052.41 903.104C1039.05 904.058 1030.53 896.93 1023.4 880.668C1018.41 869.277 1018.42 856.193 1027.82 849.145Z"/><path fill="#EAE9E5" d="M729.315 729.035C720.294 724.878 725.897 714.548 724.955 702.008C724.628 697.643 732.389 704.146 731.185 707.29C732.188 712.192 734.814 719.964 736.249 724.641L736.526 725.55C737.159 724.098 744.687 700.05 748.264 714.849C748.695 716.633 749.321 739.31 746.069 737.74C743.373 737.513 743.298 731.112 742.929 728.508C743.08 726.951 743.317 725.586 742.817 724.164C741.905 723.619 741.449 724.733 740.686 725.682C737.54 738.355 734.835 730.899 732.202 723.474C730.288 724.262 730.336 726.426 729.315 729.035Z"/><path fill="#444" d="M729.315 729.035C729.457 726.54 729.728 711.092 732.202 723.474C730.288 724.262 730.336 726.426 729.315 729.035Z"/><path fill="#EAE9E5" d="M849.788 778.577L850.946 777.463C856.49 771.887 860.13 779.633 861.346 778.97C862.121 777.636 861.096 774.314 862.37 772.888C863.087 772.086 865.492 772.999 865.784 774.179C866.565 777.301 866.304 781.996 866.266 785.311C866.218 789.507 866.587 795.216 865.995 799.123C865.603 801.711 862.454 799.026 861.99 797.871C861.526 796.715 859.458 797.054 858.796 796.972C855.006 796.705 852.775 792.393 850.661 788.63C850.841 785.466 850.237 781.715 849.788 778.577Z"/><path fill="#1D1D1C" d="M855.567 779.645C861.552 782.03 861.95 784.986 861.489 792.869C854.453 791.954 854.094 788.799 855.567 779.645Z"/><path fill="#EAE9E5" d="M828.539 781.996C825.109 779.032 822.693 776.752 818.668 776.108C812.81 775.17 813.676 755.655 814.564 755.22C822.707 751.237 814.077 775.497 823.363 772.623C828.488 770.612 819.45 760.137 829.227 759.827L829.819 761.175C830.049 761.707 830.127 762.108 830.264 762.688C830.377 763.165 830.667 764.166 831.056 764.33C831.321 764.441 831.822 763.756 831.971 763.607C832.427 768.599 832.62 776.736 831.816 781.677C831.511 781.176 831.206 780.675 830.901 780.174C829.975 781.812 830.032 782.066 828.539 781.996Z"/><path fill="#444" d="M829.227 759.827L829.819 761.175C830.049 761.707 830.127 762.108 830.264 762.688C830.377 763.165 830.667 764.166 831.056 764.33C831.321 764.441 831.822 763.756 831.971 763.607C832.427 768.599 832.62 776.736 831.816 781.677C831.511 781.176 831.206 780.675 830.901 780.174C829.975 781.812 830.032 782.066 828.539 781.996C828.979 779.831 829.048 779.508 829.055 777.241L829.227 759.827Z"/><path fill="#EAE9E5" d="M753.95 724.077C756.869 724.377 759.111 724.379 761.745 726.374C764.818 728.677 766.994 732.689 767.701 737.355C768.243 740.874 766.46 743.496 764.975 746.051C755.581 744.969 746.701 736.911 753.95 724.077Z"/><path fill="#1D1D1C" d="M756.044 728.286C762.467 730.606 763.088 731.83 762.863 740.568C755.773 739.794 755.111 737.584 756.044 728.286Z"/><path fill="#EAE9E5" d="M831.971 763.607C835.276 764.814 836.761 766.952 839.565 767.249C843.459 767.661 845.512 770.824 848.181 774.128L848.613 775.896C848.869 776.978 848.877 778.068 849.275 779.098C849.536 779.052 849.367 779.138 849.788 778.577C850.237 781.715 850.841 785.466 850.661 788.63C848.86 789.621 848.885 789.489 847.589 791.236C845.449 789.813 842.683 788.741 842.922 784.417C843.197 779.461 843.743 771.198 838.148 771.487C835.564 771.621 838.528 783.175 836.075 784.148C834.772 784.664 832.71 782.446 831.816 781.677C832.62 776.736 832.427 768.599 831.971 763.607Z"/><path fill="#444" d="M848.181 774.128L848.613 775.896C848.869 776.978 848.877 778.068 849.275 779.098C849.536 779.052 849.367 779.138 849.788 778.577C850.237 781.715 850.841 785.466 850.661 788.63C848.86 789.621 848.885 789.489 847.589 791.236C848.053 784.992 847.536 780.625 848.181 774.128Z"/><path fill="#EAE9E5" d="M771.012 740.943C766.346 728.323 780.341 731.16 783.138 742.246C782.236 743.391 782.223 743.336 781.73 744.847C782.971 747.189 784.924 750.179 783.779 753.287C783.478 754.11 782.938 754.726 782.289 754.987C776.845 757.222 771.249 750.817 769.609 743.701C770.085 742.805 770.611 741.886 771.012 740.943Z"/><path fill="#444" d="M771.012 740.943C772.218 741.993 779.325 747.16 778.941 748.667C777.989 752.399 772.608 745.139 769.609 743.701C770.085 742.805 770.611 741.886 771.012 740.943Z"/><path fill="#444" d="M781.73 744.847C779.949 744.322 775.028 741.152 774.991 738.28C776.381 735.499 779.381 741.476 783.138 742.246C782.236 743.391 782.223 743.336 781.73 744.847Z"/><path fill="#BFC0BF" d="M786.53 741.94C790.466 741.995 794.467 742.166 797.47 746.01C801.881 751.656 798.124 751.436 797.353 753.206C797.649 754.133 799.941 756.406 800.142 757.768C801.593 767.563 793.38 762.664 790.743 761.156C785.173 754.206 784.762 750.139 790.468 755.405C792.005 756.823 791.814 758.739 794.442 758.775C794.984 758.316 794.916 758.466 795.149 757.721C794.74 752.22 784.563 753.979 786.53 741.94Z"/><path fill="#444" d="M791.976 747.153C793.679 746.005 793.76 746.858 794.665 748.991C792.656 750.391 792.037 750.408 791.976 747.153Z"/><path fill="#EAE9E5" d="M805.668 743.718C806.889 743.172 808.672 743.142 809.717 743.835C815.427 747.62 809.221 748.135 808.934 748.947C808.178 751.089 811.549 751.405 811.799 753.579C811.815 753.719 812.153 755.438 811.729 755.806C809.134 756.43 808.179 754.072 809.13 759.767C808.935 762.913 809.673 773.772 804.964 768.279C802.38 765.266 806.628 754.075 801.959 751.601C800.178 750.658 804.399 746.509 805.668 743.718Z"/><path fill="#386D5A" d="M720.748 875.006C726.099 874.218 730.286 876.592 735.343 879.103C766.308 894.484 797.07 910.818 827.918 926.614L982.581 1005.67L1043.7 1037.21C1054.91 1043.06 1079.24 1049.28 1068.84 1071.29C1066.18 1072.17 1063.58 1072.91 1060.94 1071.56C1038.52 1060.14 1015.77 1048.31 993.399 1036.8L863.173 970.558L767.671 921.75C754.003 914.672 739.707 907.838 726.479 899.555C719.256 895.032 715.916 884.518 720.748 875.006Z"/><path fill="#EAE9E5" d="M921.75 981.845C929.296 981.659 969.636 1003.98 980.425 1009.52L1033.29 1036.7C1041.38 1040.87 1062.52 1049.67 1066.72 1058.15C1067.51 1062.61 1067.08 1063.19 1065.75 1067.35C1060.63 1067.72 1016 1043.41 1008.65 1039.65L954.596 1011.89C947.996 1008.5 923.468 997.648 920.719 991.511C920.03 986.922 920.507 986.151 921.75 981.845Z"/><path fill="#444" d="M825.304 980.802C833.878 980.586 850.541 990.272 858.824 994.584L906.388 1019.69C924.607 1029.12 944.836 1037.82 962.388 1048.8C972.978 1055.43 985.362 1083.37 969.135 1095.27C966.507 1095.74 963.837 1095.52 961.271 1094.62C955.094 1092.42 941.689 1084.77 935.523 1081.45L888.625 1056.25C876.765 1049.93 864.865 1043.76 852.929 1037.71C846.142 1034.28 834.531 1029.49 828.819 1024.56C818.309 1015.49 809.957 989.975 825.304 980.802Z"/><path fill="#EAE9E5" d="M826.742 983.388C836.891 985.239 847.996 992.066 857.639 997.092L908.375 1023.87C922.585 1031.24 937.009 1038.28 951.332 1045.43C959.902 1049.3 967.487 1054.84 971.777 1066.36C976.032 1077.78 976.458 1086.74 967.515 1093.23C959.778 1092.45 947.735 1084.97 940.084 1080.91L890.849 1054.33C879.105 1048.09 867.326 1041.97 855.513 1035.98C848.557 1032.5 837.713 1028.18 831.473 1023.38C821.923 1016.04 812.068 991.927 826.742 983.388Z"/><path fill="#BFC0BF" d="M890.846 1028.33C891.911 1026.3 892.757 1024.86 893.205 1028.21C893.995 1029.89 894.408 1030.82 895.088 1032.55C900.922 1035.78 904.436 1033.88 903.866 1043.79C903.679 1047.04 904.806 1048.12 902.021 1048.06C899.605 1046.01 895.056 1044.88 891.482 1042.84C890.09 1037.86 890.59 1036.17 890.732 1030.45L890.846 1028.33Z"/><path fill="#1D1D1C" d="M895.088 1032.55C900.922 1035.78 904.436 1033.88 903.866 1043.79C903.679 1047.04 904.806 1048.12 902.021 1048.06C901.711 1045.96 901.55 1038.88 900.003 1038.06C897.292 1036.61 898.087 1043.82 896.339 1044.61L895.853 1044.26C895.22 1042.7 895.144 1034.87 895.088 1032.55Z"/><path fill="#444" d="M890.732 1030.45C894.98 1032.35 894.13 1039.87 891.482 1042.84C890.09 1037.86 890.59 1036.17 890.732 1030.45Z"/><path fill="#717171" d="M890.846 1028.33C891.911 1026.3 892.757 1024.86 893.205 1028.21C892.192 1029.67 892.109 1029.31 890.846 1028.33Z"/><path fill="#1D1D1C" d="M924.863 1050.43C926.537 1049.63 927.994 1049.09 929.697 1050.11C931.344 1051.11 931.575 1048.32 932.76 1047.55C935.239 1047.76 934.379 1059.47 934.231 1061.6C933.926 1066.01 926.219 1059.54 924.674 1057.2L922.672 1057.52C922.887 1055.29 923.084 1053.2 923.252 1050.97L924.863 1050.43Z"/><path fill="#BFC0BF" d="M923.252 1050.97L924.863 1050.43C924.836 1052.74 924.758 1054.89 924.674 1057.2L922.672 1057.52C922.887 1055.29 923.084 1053.2 923.252 1050.97Z"/><path fill="#EAE9E5" d="M928.913 1053.2C929.92 1052.77 931.006 1053.39 931.49 1054.66C931.974 1055.93 931.718 1057.49 930.881 1058.36C930.191 1059.08 929.251 1059.18 928.491 1058.6C927.732 1058.02 927.299 1056.88 927.391 1055.71C927.482 1054.53 928.081 1053.55 928.913 1053.2Z"/><path fill="#1D1D1C" d="M949.947 1066.86C950.09 1064.18 949.657 1059.15 950.413 1056.84C950.496 1056.59 950.671 1056.16 950.906 1056.12C951.349 1056.05 952.108 1057.02 952.235 1057.15C956.726 1058.36 953.72 1063.76 955.711 1063.49C960.278 1062.87 963.076 1072.74 960.753 1076.96C957.226 1078.88 960.43 1066.37 956.249 1066.52C954.732 1066.58 955.485 1073.3 953.828 1074.34C953.263 1074.06 953.333 1073.86 952.946 1072.91L952.915 1072.91C952.501 1071.68 952.407 1070.8 952.161 1069.47C950.985 1070.34 950.276 1071.07 949.155 1072.12C949.614 1069.82 949.862 1069.1 949.947 1066.86Z"/><path fill="#BFC0BF" d="M949.947 1066.86C950.09 1064.18 949.657 1059.15 950.413 1056.84C950.496 1056.59 950.671 1056.16 950.906 1056.12C951.349 1056.05 952.108 1057.02 952.235 1057.15C952.329 1061.66 952.303 1065 952.161 1069.47C950.985 1070.34 950.276 1071.07 949.155 1072.12C949.614 1069.82 949.862 1069.1 949.947 1066.86Z"/><path fill="#444" d="M876.349 1024.7C878.116 1024.05 879.985 1023.63 881.572 1024.95C884.966 1027.77 882.438 1028.88 883.897 1033.14C886.834 1041.7 877.739 1035.52 876.492 1034.71C875.605 1034.17 874.71 1033.66 873.809 1033.16C874.372 1030.42 874.992 1027.74 875.574 1025L876.349 1024.7Z"/><path fill="#BFC0BF" d="M875.574 1025L876.349 1024.7C877.289 1031.58 879.354 1029.01 876.492 1034.71C875.605 1034.17 874.71 1033.66 873.809 1033.16C874.372 1030.42 874.992 1027.74 875.574 1025Z"/><path fill="#444" d="M847.705 1007.82C853.172 1009.92 857.425 1012.7 854.175 1021.2L853.446 1023.17C845.923 1019.4 843.143 1017.51 847.705 1007.82Z"/><path fill="#EAE9E5" d="M848.899 1012.66C849.574 1011.86 850.515 1011.63 851.351 1012.06C852.187 1012.49 852.785 1013.5 852.908 1014.7C853.032 1015.9 852.662 1017.1 851.944 1017.82C850.89 1018.88 849.409 1018.62 848.589 1017.23C847.77 1015.84 847.907 1013.82 848.899 1012.66Z"/><path fill="#444" d="M873.809 1033.16C865.956 1030.86 860.823 1019.67 871.605 1018.61C872.015 1019.31 872.424 1020 872.834 1020.7C873.655 1022.13 874.675 1023.62 875.574 1025C874.992 1027.74 874.372 1030.42 873.809 1033.16Z"/><path fill="#959493" d="M871.605 1018.61C872.015 1019.31 872.424 1020 872.834 1020.7C872.322 1022.47 871.755 1024.18 871.182 1025.9C871.483 1026.83 872.415 1027.47 872.341 1028.41C871.962 1031.35 869.787 1029.81 869.176 1028.03C868.629 1026.63 869.699 1025.7 869.275 1024.3C868.482 1021.69 870.305 1020.23 871.605 1018.61Z"/><path fill="#1D1D1C" d="M939.672 1063.16C948.592 1050.28 949.198 1051.24 949.947 1066.86C949.862 1069.1 949.614 1069.82 949.155 1072.12C944.485 1064.8 946.103 1067.34 939.672 1063.16Z"/><path fill="#BFC0BF" d="M945.511 1061C946.224 1060.82 946.519 1060.3 946.983 1060.99C946.954 1062.11 946.523 1062.64 946.017 1063.61C943.466 1063.31 944.545 1062.74 945.511 1061Z"/><path fill="#444" d="M855.719 1014.14C857.523 1014.03 863.545 1013.43 863.531 1017.77C863.107 1018.18 862.322 1018.97 862.12 1019.38C863.459 1023.36 867.143 1022.83 863.288 1028.08C860.965 1026.74 858.277 1026.16 857.015 1023.11C857.704 1021.16 860.242 1024.39 861.116 1023.17C859.675 1019.78 857.31 1021.15 856.19 1016.06L855.719 1014.14Z"/><path fill="#444" d="M915.226 1054.99C911.455 1050.17 913.498 1050.45 912.913 1043.23C912.749 1041.21 907.774 1040.34 911.773 1038.02C913.81 1036.83 915.572 1037.44 915.933 1040.64L917.293 1041.09C917.818 1042.36 918.271 1043.59 918.76 1044.88C915.114 1045.92 916.676 1049.24 915.226 1054.99Z"/><path fill="#BFC0BF" d="M915.933 1040.64L917.293 1041.09C917.818 1042.36 918.271 1043.59 918.76 1044.88C915.114 1045.92 916.676 1049.24 915.226 1054.99C915.367 1049.43 915.386 1046.22 915.933 1040.64Z"/><path fill="#444" d="M832.336 1000.47C834.161 1001.18 839.733 1003.06 840.198 1006.17C838.256 1010.25 831.528 997.917 834.436 1010.96C835.789 1011.19 838.201 1011.11 839.298 1012.21C839.743 1012.65 839.24 1013.62 838.83 1013.87C835.779 1015.69 832.301 1012.63 831.241 1008.7C830.438 1005.72 831.532 1003.1 832.336 1000.47Z"/><path fill="#1D1D1C" d="M917.293 1041.09C924.062 1040.84 922.963 1041.96 923.252 1050.97C923.084 1053.2 922.887 1055.29 922.672 1057.52C917.331 1054.57 922.57 1050.74 918.76 1044.88C918.271 1043.59 917.818 1042.36 917.293 1041.09Z"/><path fill="#444" d="M842.096 1000.56C845.938 1003.56 844.398 1011.25 844.393 1017.42C839.29 1014.9 841.375 1007.39 842.096 1000.56Z"/><path fill="#35456A" d="M915.424 1650.04C947.519 1666.22 979.548 1682.65 1011.51 1699.32C1026.95 1707.31 1042.09 1714.32 1057.15 1723.73C1072.62 1733.4 1071.9 1765.4 1056.5 1758.76C1040.99 1752.07 1023.15 1742.07 1007.74 1733.98C976.587 1717.81 945.518 1701.34 914.535 1684.58C916.997 1682.93 919.576 1682.95 921.358 1680.26C928.746 1669.12 915.998 1656.01 915.424 1650.04Z"/><path fill="#444" d="M763.672 1085.48C764.162 1085.48 767.484 1085.4 768.019 1085.67C804.862 1103.85 842.089 1122.55 878.316 1142.89C887.762 1148.2 892.633 1167.82 881.283 1178.03C872.1 1178.31 866.175 1174.73 857.693 1170.28C828.23 1154.69 798.181 1140.4 769.022 1123.85C757.934 1117.56 752.026 1097.17 763.672 1085.48Z"/><path fill="#EAE9E5" d="M762.905 1089.03C773.801 1086.98 828.316 1120.24 842.22 1126.33C854.317 1131.63 897.284 1147.36 882.061 1174.45C870.706 1177.39 835.466 1155.48 822.843 1149.33C805.31 1140.78 785.691 1130.55 768.697 1120.11C759.877 1114.69 758.397 1100.21 762.905 1089.03Z"/><path fill="#386D5A" d="M848.876 1650.22C820.142 1635.66 791.463 1620.91 762.839 1605.96C752.44 1600.58 725.177 1587.49 716.223 1581.06C713.089 1578.81 710.35 1575.68 708.193 1571.86C701.543 1560.08 702.22 1541.12 716.372 1547.58C731.016 1554.27 745.599 1562.25 760.072 1569.71L850.564 1616.71C847.447 1619.55 844.686 1621.66 843.995 1626.87C843.014 1634.27 845.445 1639.43 848.372 1645.42C848.617 1645.84 848.862 1646.27 849.107 1646.7C849.357 1647.2 849.955 1648.38 849.858 1649.02C849.796 1649.42 848.771 1650.33 848.876 1650.22Z"/><path fill="#444" d="M762.289 1256.42C763.405 1256.25 764.47 1256.11 765.592 1256.08C773.07 1255.91 856.386 1300.3 866.797 1306.98C869.781 1308.9 872.344 1310.88 874.651 1314.13C877.843 1318.63 880.003 1324.29 879.722 1330.66C879.463 1336.51 877.419 1339.48 874.36 1343.3C865.392 1346.31 862.336 1343.29 854.047 1339.01C826.397 1324.72 798.687 1310.59 771.081 1296.17C759.022 1289.87 750.958 1270.06 762.289 1256.42Z"/><path fill="#EAE9E5" d="M763.75 1258.8C766.034 1258.72 768.026 1258.81 770.233 1259.69C782.944 1264.76 865.336 1307.03 871.522 1314.43C874.664 1318.18 877.025 1324.01 876.916 1329.78C876.816 1335.09 875.051 1337.89 872.291 1341.35C871.808 1341.43 871.325 1341.53 870.841 1341.6C868.502 1341.95 866.401 1341.66 864.151 1340.77C852.854 1336.29 770.921 1295.04 764.715 1287.51C761.787 1283.96 759.96 1278.23 759.748 1272.96C759.495 1266.71 760.725 1263.35 763.75 1258.8Z"/><path fill="#444" d="M762.892 1341.78C764.554 1341.62 766.182 1341.53 767.838 1341.85C776.309 1343.52 855.205 1384.72 864.644 1391.59C867.741 1393.86 870.41 1397.07 872.441 1400.98C877.811 1411.22 877.547 1421.93 869.558 1429.14C854.007 1430.41 787.702 1387.75 768.548 1380C759.823 1376.48 750.19 1354.32 762.892 1341.78Z"/><path fill="#EAE9E5" d="M763.489 1344.31C765.447 1344.33 767.361 1344.28 769.277 1344.91C780.544 1348.61 862.453 1391.36 867.907 1398.52C871.189 1402.84 873.418 1408.76 873.298 1415.04C873.196 1420.36 871.617 1422.82 868.892 1426.22C857.202 1427.15 815.167 1400.44 801.323 1394.53C788.773 1389.17 744.75 1371.72 763.489 1344.31Z"/><path fill="#444" d="M765.256 1169.87C779.331 1171.99 806.457 1190.92 821.039 1197.02C835.028 1205.26 851.418 1211.16 864.87 1220.69C875.491 1228.21 881.41 1250.41 866.607 1257.75C850.984 1255.43 823.435 1235.39 806.911 1228.68C794.231 1221.15 778.834 1215.98 766.723 1207.2C756.347 1199.68 751.414 1177.42 765.256 1169.87Z"/><path fill="#EAE9E5" d="M763.682 1173.31C765.847 1173.21 768.002 1173.36 770.106 1174.11C781.885 1178.3 860.615 1218.76 866.665 1225.97C869.929 1229.86 872.256 1235.69 872.491 1241.6C872.718 1247.29 871.364 1250.24 868.584 1254.3C851.255 1254.27 784.848 1212.71 765.645 1202.52C759.525 1199.27 757.242 1182.94 763.682 1173.31Z"/><path fill="#386D5A" d="M993.069 1460.66C1007.74 1458.27 1037.71 1482.69 1052.52 1487.34C1066.53 1491.74 1085.18 1512.6 1068.53 1530.41C1054.06 1532.41 1016.38 1505.9 1000.59 1499.67C990.868 1495.82 980.911 1473.57 993.069 1460.66Z"/><path fill="#386D5A" d="M994.741 1284.97C1010.12 1285.69 1048.29 1312.28 1064.88 1319.19C1072.49 1322.36 1080.86 1345.55 1068.93 1354.71L1067.45 1355.9C1053.83 1356.68 1025.48 1335.42 1011.25 1330.04C1003.17 1326.98 991.771 1320.63 988.773 1309.23C985.78 1297.85 986.455 1290.4 994.741 1284.97Z"/><path fill="#386D5A" d="M993.861 1198.26C1009.16 1198.69 1047.13 1225.12 1063.64 1232.27C1072.11 1235.94 1079.57 1258.22 1066.66 1269.74C1052.49 1269.8 1013.59 1243.99 998.153 1236.82C988.99 1232.56 981.734 1210.59 993.861 1198.26Z"/><path fill="#386D5A" d="M992.908 1373.88C1008.73 1372.76 1046.39 1399.43 1063.25 1406.87C1072.19 1410.82 1078.72 1432.9 1067.78 1443.97C1051.21 1444.61 1016.97 1419.42 999.444 1412.48C990.161 1408.8 981.684 1386.69 992.908 1373.88Z"/><path fill="#717171" d="M850.564 1616.71C861.858 1620.67 905.301 1642.93 915.424 1650.04C915.998 1656.01 928.746 1669.12 921.358 1680.26C919.576 1682.95 916.997 1682.93 914.535 1684.58C903.693 1680.62 884.934 1668.85 873.691 1663.57C870.454 1662.05 851.076 1651.86 848.876 1650.22C848.771 1650.33 849.796 1649.42 849.858 1649.02C849.955 1648.38 849.357 1647.2 849.107 1646.7C848.862 1646.27 848.617 1645.84 848.372 1645.42C845.445 1639.43 843.014 1634.27 843.995 1626.87C844.686 1621.66 847.447 1619.55 850.564 1616.71Z"/><path fill="#717171" d="M847.762 885.26C850.861 886.913 854.192 888.08 857.079 890.221L858.403 891.161C859.39 890.814 859.243 890.801 860.178 891.374C864.248 893.734 867.207 894.333 869.205 900.125C870.293 903.28 873.482 897.82 878.071 901.237C883.175 905.037 881.576 907.184 884.196 910.06C889.254 909.639 885.559 901.719 897.79 913.755L895.673 916.88C898.124 917.736 898.477 918.723 896.965 921.517C896.764 923.555 896.602 923.847 896.946 925.641C888.715 926.385 888.668 923.618 884.167 915.623C883.106 916.048 882.399 917.182 881.428 917.826C880.101 918.723 878.563 918.855 877.163 918.193C874.434 916.888 872.287 913.829 871.051 910.332C870.74 909.71 869.722 904.854 868.534 905.68C866.715 906.947 862.605 903.427 862.039 906.573C861.9 907.182 861.761 907.791 861.622 908.4C861.351 909.329 860.109 909.431 859.568 909.562L857.391 907.597C854.143 906.16 851.011 904.382 847.745 902.878C847.778 897.005 847.784 891.133 847.762 885.26Z"/><path fill="#717171" d="M847.762 885.26C850.861 886.913 854.192 888.08 857.079 890.221L858.403 891.161C859.39 890.814 859.243 890.801 860.178 891.374C858.672 894.898 859.374 905.328 859.568 909.562L857.391 907.597C854.143 906.16 851.011 904.382 847.745 902.878C847.778 897.005 847.784 891.133 847.762 885.26Z"/><path fill="#BFC0BF" d="M858.403 891.161C859.39 890.814 859.243 890.801 860.178 891.374C858.672 894.898 859.374 905.328 859.568 909.562L857.391 907.597C856.639 900.647 850.333 903.635 850.776 898.942C852.358 897.058 854.891 900.696 856.214 898.605C856.266 897.994 856.283 898.388 855.824 897.546L856.065 898.702L855.179 896.783L855.467 897.02C854.141 895.561 851.22 895.017 850.65 893.095C850.01 890.938 852.902 890.823 853.826 891.348C856.15 892.67 856.386 892.699 858.403 891.161Z"/><path fill="#EAE9E5" d="M896.965 921.517C895.077 921.605 892.371 922.353 890.601 920.95C889.308 919.905 888.389 918.185 888.057 916.193C886.638 907.327 892.942 912.318 895.673 916.88C898.124 917.736 898.477 918.723 896.965 921.517Z"/><path fill="#EAE9E5" d="M874.744 904.919C876.438 903.41 878.709 903.991 879.882 906.234C881.055 908.476 880.71 911.577 879.102 913.25C878.008 914.388 876.543 914.624 875.283 913.866C874.023 913.107 873.169 911.474 873.056 909.61C872.944 907.745 873.591 905.946 874.744 904.919Z"/><path fill="#BFC0BF" d="M862.441 897.516C862.932 896.755 863.689 896.414 864.418 896.628C865.147 896.841 865.733 897.574 865.95 898.542C866.166 899.511 865.979 900.563 865.46 901.29C864.685 902.375 863.414 902.425 862.595 901.401C861.775 900.377 861.707 898.653 862.441 897.516Z"/><path fill="#386D5A" d="M718.002 1147.18C732.811 1150 744.916 1170.47 729.122 1180.13C714.235 1177.91 703.301 1155.01 718.002 1147.18Z"/><path fill="#386D5A" d="M716.241 1237.49C730.794 1236.82 744.892 1255.14 732.173 1268.86C725.124 1269.78 721.049 1268.04 715.976 1260.87C713.401 1257.29 712.005 1252.45 712.108 1247.45C712.239 1242.61 713.814 1240.67 716.241 1237.49Z"/><path fill="#386D5A" d="M718.007 1321.77C724.874 1322.6 729.465 1324.71 733.822 1332.69C737.517 1339.45 738.336 1348.55 732.328 1353.35L731.081 1354.41C716.218 1353.06 704.038 1332.77 718.007 1321.77Z"/><path fill="#386D5A" d="M714.746 1064.13C720.375 1063.49 724.904 1063.45 729.271 1068.81C736.173 1077.29 739.311 1085.02 733.002 1095C719.063 1098.09 705.854 1080.34 714.746 1064.13Z"/><path fill="#1D1D1C" d="M879.172 702.611C891.055 702.129 901.78 716.237 893.113 729.744C881.209 729.443 869.665 716.632 879.172 702.611Z"/><path fill="#1D1D1C" d="M882.387 722.444C872.187 702.549 888.779 699.991 892.723 718.652C892.408 728.867 887.504 726.346 882.387 722.444Z"/><path fill="#717171" d="M882.387 722.444C872.187 702.549 888.779 699.991 892.723 718.652L891.453 718.812L890.972 716.973C888.02 704.938 878.032 705.774 881.952 717.243C882.223 718.036 883.244 719.019 883.858 720.967L882.387 722.444Z"/><path fill="#BFC0BF" d="M891.453 718.812L892.723 718.652C892.408 728.867 887.504 726.346 882.387 722.444L883.858 720.967C888.145 721.193 887.853 721.701 891.453 718.812Z"/><path fill="#BFC0BF" d="M884.065 713.291C884.501 712.287 885.324 711.714 886.179 711.821C887.034 711.928 887.767 712.695 888.059 713.791C888.352 714.886 888.153 716.112 887.547 716.938C886.759 718.013 885.506 718.124 884.622 717.198C883.738 716.272 883.499 714.598 884.065 713.291Z"/><path fill="#717171" d="M897.79 913.755L899.372 913.12L900.383 913.528C903.524 914.731 900.719 918.582 902.904 920.929C904.442 922.582 907.033 923.322 907.551 919.881C907.682 918.721 909.485 917.788 909.868 918.815C911.15 922.248 910.848 928.781 910.605 932.76C910.353 936.891 907.239 932.345 907.993 929.773C908.197 929.078 907.227 926.382 906.667 926.029C904.177 923.963 902.528 922.464 901.927 927.449C901.489 931.075 900.072 929.552 898.89 927.395C898.242 926.81 897.594 926.226 896.946 925.641C896.602 923.847 896.764 923.555 896.965 921.517C898.477 918.723 898.124 917.736 895.673 916.88L897.79 913.755Z"/><path fill="#BFC0BF" d="M897.79 913.755L899.372 913.12C898.593 917.633 898.908 922.613 898.89 927.395C898.242 926.81 897.594 926.226 896.946 925.641C896.602 923.847 896.764 923.555 896.965 921.517C898.477 918.723 898.124 917.736 895.673 916.88L897.79 913.755Z"/><path fill="#717171" d="M925.195 936.636C927.674 933.747 928.74 930.962 932.35 930.002C935.425 929.185 936.185 947.813 933.889 946.453C931.042 944.766 931.79 942.897 927.628 940.616L926.741 940.16C926.115 938.84 925.731 938.039 925.195 936.636Z"/><path fill="#717171" d="M923.921 941.847C918.101 940.254 922.597 934.444 920.693 928.579C920.332 927.468 918.97 927.463 918.403 927.125C917.164 926.387 917.974 924.092 919.17 924.138C924.379 922.688 923.713 930.801 924.047 935.919L925.195 936.636C925.731 938.039 926.115 938.84 926.741 940.16L923.921 941.847Z"/><path fill="#BFC0BF" d="M924.047 935.919L925.195 936.636C925.731 938.039 926.115 938.84 926.741 940.16L923.921 941.847C923.949 939.855 923.962 937.911 924.047 935.919Z"/><path fill="#EAE9E5" d="M711.461 587.108C721.64 581.566 732.281 574.837 743.346 578.031C759.76 582.769 777.329 593.216 793.07 601.496L869.32 641.69L1006.97 714.782C1030.23 727.109 1053.9 739.473 1076.82 751.73C1105.83 767.241 1132.14 809.012 1132.82 852.495C1133.53 897.107 1132.91 943.065 1132.86 987.911L1132.29 1265.49L1132.2 1602.94C1132.13 1649.45 1132.44 1696.01 1132.27 1742.51C1132.12 1782.9 1112.86 1791.04 1089.99 1804.21C1096.06 1793.93 1100.97 1784.18 1101.6 1770.47C1102.48 1751.1 1102.15 1730.68 1102.13 1711.21L1102.09 1607.92L1102.09 1265.76L1102.11 983.947L1102.17 902.963C1102.18 888.144 1102.55 866.859 1101.39 852.443C1099 824.76 1088.46 799.565 1072.17 782.591C1051.11 760.317 1002.02 738.169 975.472 724.244L861.365 664.136L777.33 619.674C758.746 609.893 734.027 595.623 715.089 590.795C714.262 590.724 708.77 590.733 708.472 589.564C708.895 588.277 710.523 587.636 711.461 587.108Z"/><path fill="#BFC0BF" d="M715.089 590.795C714.262 590.724 708.77 590.733 708.472 589.564C708.895 588.277 710.523 587.636 711.461 587.108C712.775 588.251 713.865 589.49 715.089 590.795Z"/><path fill="#959493" d="M1115.43 1354.05C1120.71 1353.43 1124.43 1352.92 1127.5 1359.67C1129.1 1373.78 1128.74 1583.21 1127.45 1587.59C1126.1 1592.2 1123.1 1593.4 1119.98 1595.12C1113.18 1594.59 1107.94 1592.44 1107.98 1581.56C1108.24 1508.85 1107.32 1435.99 1108.31 1363.34C1108.36 1359.64 1113.36 1355.75 1115.43 1354.05Z"/><path fill="#EAE9E5" d="M1118.85 1356.38C1120.51 1356.74 1124.38 1357.92 1124.48 1359.51C1125.98 1382.91 1126.14 1580.53 1124.21 1587.81C1121.97 1591.28 1120.38 1591.46 1117.12 1592.82C1114.35 1591.03 1113.19 1590.71 1111.55 1587.2C1109.76 1571.77 1109.77 1367.95 1111.5 1362.39C1112.73 1358.41 1116.13 1357.47 1118.85 1356.38Z"/><path fill="#1D1D1C" d="M1119.16 1043.66C1122.02 1043.98 1122 1044.09 1124.71 1045.51C1127.37 1050.99 1126.91 1193.54 1125.85 1209.12C1124.39 1213.13 1122.72 1213.8 1119.81 1215.99C1116.19 1215.03 1114.68 1214.87 1112.57 1211.02C1110.48 1201.15 1112.47 1073.9 1112.36 1053.48C1112.33 1049.39 1116.55 1045.85 1119.16 1043.66Z"/><path fill="#EAE9E5" d="M1119.72 1046.61C1123.45 1047.72 1123.49 1049.77 1123.45 1054.54C1123.03 1105.07 1123.86 1155.71 1123.12 1206.19C1123.08 1209.06 1120.67 1211.54 1119.27 1213.55C1115.01 1210.54 1114.77 1209.49 1114.8 1203.1C1115.05 1153.98 1114.82 1104.84 1115.15 1055.72C1115.18 1051.9 1117.88 1049.27 1119.72 1046.61Z"/><path fill="#1D1D1C" d="M1232.71 1664.17C1256.66 1663.04 1284.33 1663.88 1308.55 1663.89L1448.02 1663.9L1544.17 1663.86C1561.36 1663.85 1578.88 1663.39 1596.05 1664.42C1612.88 1665.42 1634.72 1681.41 1635.23 1706.86C1635.53 1721.67 1635.45 1736.59 1635.45 1751.39L1635.43 1849.07L1635.4 2080.6C1635.4 2121.42 1635.47 2162.42 1635.26 2203.23C1634.7 2211.49 1635.55 2220.9 1632.44 2228.34C1624.58 2247.12 1611.51 2253.18 1596.76 2256.13C1571.8 2257.21 1543.87 2256.44 1518.64 2256.44L1374.98 2256.47L1282.45 2256.55C1268.67 2256.56 1245.34 2257.49 1232.07 2255.91C1224.19 2255.06 1216.55 2251.75 1209.77 2246.22C1188.73 2228.77 1193.96 2197.18 1194.09 2167.73L1194.38 2063.68L1194.49 1833.21C1194.5 1793.52 1194.56 1753.8 1194.68 1714.11C1194.78 1680.6 1210.31 1668.75 1232.71 1664.17Z"/><path fill="#444" d="M1230.61 1952.61L1342.33 1952.49C1359.98 1952.48 1378.6 1951.37 1396.05 1953.77C1406.04 1955.15 1411.08 1967.34 1411.04 1979.94C1410.85 2028.92 1411.62 2078.08 1411.26 2127.04C1405.73 2139.29 1401.1 2142.32 1391.07 2145.51C1339.32 2148.08 1285.23 2144.39 1233.35 2145.26C1225.86 2145.39 1211.94 2136.63 1211.78 2124.67C1211.09 2075.25 1211.3 2025.39 1211.5 1975.89C1211.56 1960.21 1220.77 1955.06 1230.61 1952.61Z"/><path fill="#959493" d="M1252.63 2073.75C1274.45 2072.57 1298.52 2074.07 1320.62 2073.46C1337.73 2073.69 1353.93 2072.78 1371.08 2074.02C1383.38 2074.91 1397.93 2087.9 1389.62 2106.38C1386.12 2114.15 1378.43 2116.88 1372.2 2118.39C1333.57 2119.71 1293.01 2118.32 1254.26 2118.1C1230.57 2117.96 1221.18 2081.02 1252.63 2073.75Z"/><path fill="#444" d="M1251.91 2076C1290.15 2073.91 1330.78 2077.17 1369.18 2076.03C1388.78 2075.45 1401.57 2104.57 1374.36 2116.06L1294.91 2116.13C1281.01 2116.14 1267.36 2116.36 1253.28 2115.78C1242.62 2115.33 1229.79 2102.95 1236.57 2087.03C1239.5 2080.17 1246.45 2077.35 1251.91 2076Z"/><path fill="#959493" d="M1245.89 2094.13C1250.44 2092.8 1286.98 2092.79 1292.59 2093.23C1303.16 2094.05 1367.31 2090.99 1372.48 2095.05C1363.02 2096.79 1250.02 2096.49 1245.89 2094.13Z"/><path fill="#EAE9E5" d="M1311.75 1994.19C1316.14 1994.45 1322.74 1994.66 1324.95 2001.01C1326.41 2005.2 1324.81 2007.52 1323.94 2011.05C1323.58 2012.5 1326.26 2014.86 1326.92 2016.28C1327.84 2018.25 1328.13 2020.65 1327.7 2022.92C1324.21 2041.97 1301.22 2017.9 1306.21 2036.58C1306.99 2039.47 1325.48 2036.32 1328.54 2038.29C1329.73 2039.06 1329.65 2041.93 1328.76 2043.25C1325.06 2045.15 1313.59 2044.18 1309.88 2044.18C1306.39 2044.19 1302.9 2044.14 1299.41 2044.02C1299.4 2038.92 1298.68 2029.11 1300.61 2025.12C1304.04 2019.49 1308.49 2019.53 1312.36 2024.05C1318.37 2031.06 1326.12 2019 1317.56 2014.55C1310.18 2010.72 1317.34 2009.41 1318.46 2007.42C1323.17 1999.01 1310.02 1998.44 1307.72 2003.29C1307.7 2005.03 1303.99 2007.16 1302.82 2006.13C1296.06 2000.19 1309.43 1994.81 1311.75 1994.19Z"/><path fill="#444" d="M1443.96 1952.66C1494.76 1951.14 1546.44 1953.07 1597.3 1952.81C1604.18 1952.78 1617.16 1958.97 1618.14 1969.69C1620.88 2006.65 1618.66 2044.85 1619.44 2082.29C1620.05 2111.97 1625.54 2136.71 1600.18 2145.35C1556.79 2147.09 1511.39 2144.73 1467.85 2145.72C1450.95 2146.1 1435.49 2149.62 1425.16 2128.44C1423.8 2116.73 1424.35 2085.27 1424.36 2072.2L1424.55 1969.05C1430.66 1957.35 1433.42 1955.42 1443.96 1952.66Z"/><path fill="#959493" d="M1460.08 2074.91C1465.23 2074.43 1470.44 2074.49 1475.61 2074.53C1512.05 2074.95 1548.9 2073.51 1585.29 2074.97C1606.37 2075.82 1615.46 2108.18 1588.43 2117.92C1568.19 2119.81 1546.29 2118.05 1525.8 2118.56C1505.41 2119.07 1484.77 2118.52 1464.37 2118.23C1460.28 2118.17 1453.89 2116.83 1450.29 2113.82C1432.25 2094.57 1444.85 2080.62 1460.08 2074.91Z"/><path fill="#444" d="M1459.67 2076.92C1479.63 2077.24 1583.92 2073.51 1593.91 2080.13C1597.85 2082.73 1601.72 2087.5 1602.89 2093.41C1603.63 2097.28 1603.17 2101.38 1601.63 2104.79C1598.51 2111.61 1592.43 2114.15 1587.11 2116.03L1504.35 2116.2C1491.84 2116.25 1473.18 2117.81 1461.56 2115.95C1441.03 2112.66 1435.47 2087.22 1459.67 2076.92Z"/><path fill="#959493" d="M1456.92 2095.32C1467.13 2093.96 1574.99 2093.72 1577.94 2096.88C1551.85 2098.21 1487.26 2096.69 1458.2 2096.77C1457.77 2096.28 1457.35 2095.8 1456.92 2095.32Z"/><path fill="#EAE9E5" d="M1515.55 1995.17C1522.82 1994.44 1546.94 1995 1534.31 2016.47C1533.75 2017.42 1532.61 2017.99 1532.35 2019.33C1532.57 2020.23 1550.4 2034.58 1529.2 2043.78C1521.92 2044.8 1503.79 2045.84 1505.01 2029.38C1505.41 2024.05 1509.61 2022.23 1511.7 2019.33C1511.17 2015.97 1495.81 2005 1515.55 1995.17Z"/><path fill="#444" d="M1517.96 2022.34C1529.13 2021.72 1539.25 2029.56 1526.29 2038.65C1515.25 2038.95 1504.75 2030.86 1517.96 2022.34Z"/><path fill="#444" d="M1519.65 2000.05C1530.74 2000.79 1537.06 2008.69 1524.92 2016.78C1513.13 2015.67 1506.75 2005.73 1519.65 2000.05Z"/><path fill="#444" d="M1229.4 1751.87C1236.17 1751.41 1243.65 1751.48 1250.52 1751.62C1299.13 1752.59 1348.29 1749.24 1396.74 1752.89C1403.07 1753.37 1408.08 1762.05 1411.3 1768.63C1412.09 1815.97 1412.05 1872.28 1411.17 1919.68C1405.33 1931.72 1402.44 1934 1392.27 1937.71C1339.92 1939.05 1286.67 1937.4 1234.28 1937.13C1227.52 1937.1 1212.41 1931.54 1212 1919.83C1210.33 1871.68 1211.4 1822.56 1211.55 1774.24C1211.59 1760.37 1221.15 1754.54 1229.4 1751.87Z"/><path fill="#959493" d="M1248.05 1869.82C1264.45 1868.57 1379.06 1866.65 1387.59 1871.91C1392.17 1874.73 1397.77 1881.17 1399.07 1888.04C1400.08 1893.37 1398.24 1897.71 1396.19 1902.07C1392.72 1909.42 1387.73 1911.24 1381.8 1913.16C1363 1914.01 1251.27 1915.48 1243.1 1910.84C1238.5 1908.23 1234.11 1903.62 1232.43 1897.03C1231.29 1892.53 1231.72 1887.43 1233.28 1883.21C1236.21 1875.28 1242.22 1872.37 1248.05 1869.82Z"/><path fill="#444" d="M1250.58 1871.87C1270.43 1871.64 1378.63 1868.5 1388.21 1874.94C1391.87 1877.39 1395.01 1881.51 1396.21 1886.92C1397.15 1891.17 1396.83 1896.38 1395.14 1900.23C1392.16 1907.03 1386.51 1909 1381.24 1910.89C1338.74 1912.85 1294.17 1909.83 1251.46 1910.85C1233.21 1911.28 1223.56 1879.16 1250.58 1871.87Z"/><path fill="#959493" d="M1244.6 1889.92C1254.06 1888.03 1281.11 1889.18 1290.86 1889.13C1299.78 1889.07 1352.35 1887.59 1357.06 1891.1C1352.99 1891.67 1333.27 1892.16 1330.19 1891.7C1318.72 1889.98 1250.96 1894.96 1244.6 1889.92Z"/><path fill="#EAE9E5" d="M1310.53 1798.2C1315.87 1798.16 1323.11 1798.31 1326.87 1804.05C1333.01 1813.43 1325.43 1818.04 1323.37 1822.29C1324.36 1824.71 1330.02 1826.15 1330.7 1832.3C1331.89 1843 1325.63 1845.7 1318.94 1847.86C1311.92 1847.93 1304.12 1848.73 1298.88 1840.96C1292.24 1831.1 1303.01 1824.56 1303.48 1822.48C1302.54 1819.83 1293.83 1814.28 1298.4 1805.55C1301.22 1800.18 1306.16 1799.25 1310.53 1798.2Z"/><path fill="#444" d="M1308.55 1826.41C1317.16 1825.27 1331.37 1829.45 1319.56 1841.18C1310.59 1843.12 1297.97 1839.2 1308.55 1826.41Z"/><path fill="#444" d="M1307.7 1805.09C1316.74 1803.99 1329.25 1808.82 1317.73 1819.89C1309.94 1820.19 1297.91 1817.21 1307.7 1805.09Z"/><path fill="#444" d="M1440.47 1751.96C1447.83 1750.99 1459.86 1751.38 1467.47 1751.37L1513.61 1751.33L1567 1751.33C1579.75 1751.32 1606.12 1747.76 1615.51 1761.22C1620.15 1767.87 1619.61 1787.79 1619.42 1797.3C1618.67 1834.56 1619.83 1872.1 1619.69 1909.37C1619.58 1925.13 1613.96 1932.18 1603.76 1936.55C1601.55 1937.1 1599.41 1937.54 1597.15 1937.59C1551.12 1938.68 1505.07 1937.19 1459.03 1938C1450.17 1938.16 1438.64 1938.28 1431.25 1930.72C1428.45 1927.82 1425.39 1922.9 1425 1917.92C1423.61 1900.02 1424.32 1880.66 1424.44 1862.71C1424.64 1831.39 1424.68 1800.07 1424.57 1768.74C1429.35 1758.44 1432.47 1756.52 1440.47 1751.96Z"/><path fill="#959493" d="M1460.25 1869.62C1484.47 1868.49 1509.98 1869.72 1534.4 1869.26C1550.9 1869.45 1566.45 1868.67 1582.99 1869.97C1593.77 1870.83 1606.88 1884.59 1599.75 1900.39C1595.97 1908.76 1589.49 1911.12 1582.84 1913.21L1502.87 1913.31C1489.13 1913.32 1475.31 1913.71 1461.6 1913C1453.04 1912.56 1443.22 1907.65 1441.44 1894.84C1440.76 1889.71 1441.71 1884.44 1444.04 1880.3C1447.9 1873.4 1454.22 1870.79 1460.25 1869.62Z"/><path fill="#444" d="M1460.42 1871.85C1499.83 1870.56 1541.31 1871.78 1580.84 1872.02C1599.19 1872.13 1609.98 1900.96 1584.03 1910.53C1577.82 1911.02 1571.08 1910.84 1564.82 1910.79C1529.71 1910.54 1494.45 1911.63 1459.38 1910.51C1449.93 1910.21 1437.1 1895.19 1445.78 1881.77C1450.74 1874.1 1452.85 1873.66 1460.42 1871.85Z"/><path fill="#959493" d="M1457.55 1889.92C1469.51 1887.9 1579.1 1887.57 1585.23 1891.09C1575.43 1892.79 1543.84 1891.97 1533.8 1891.78C1523.25 1891.58 1463.48 1893.74 1457.55 1889.92Z"/><path fill="#EAE9E5" d="M1518.61 1798.09C1526.11 1797.75 1537.24 1798.82 1537.26 1812.13C1537.28 1820.62 1521.1 1835.75 1516.34 1841.52C1519.95 1841.54 1536.66 1841.12 1537.32 1842.05C1543.58 1850.85 1520.13 1847.79 1519.06 1847.79C1516.68 1847.79 1508.5 1848.35 1507.41 1847.26C1502.66 1842.48 1516.02 1831.67 1516.69 1830.68C1520.16 1825.61 1536.04 1815.22 1527.71 1806.8C1524.36 1803.35 1516.09 1803.68 1514.28 1809.78C1512.47 1815.88 1504.09 1814.13 1507.59 1806.78C1510.24 1801.22 1514.21 1799.64 1518.61 1798.09Z"/><path fill="#444" d="M1227.3 2162.58C1245.76 2161.37 1271.37 2162.38 1290.37 2162.36L1409.96 2162.29L1527.51 2162.44C1549.44 2162.4 1571.5 2162.18 1593.44 2162.47C1598.08 2163 1605.28 2163.42 1609.53 2165.85C1618.11 2171.39 1619.79 2183.94 1619.79 2195.26C1619.79 2216.25 1617.57 2222.66 1603.08 2230.56C1591.53 2233.02 1555.36 2231.52 1541.97 2231.48L1416.3 2231.48L1287.66 2231.55C1268.87 2231.55 1247.57 2232.31 1228.87 2230.63C1220.76 2229.9 1215.53 2222.2 1211.08 2213.73C1210.23 2187.85 1205.97 2171.57 1227.3 2162.58Z"/><path fill="#386D5A" d="M1504.26 2199.22C1495.71 2201.22 1479.28 2200.15 1470.1 2200.14L1409.42 2200.14L1344.48 2200.18C1337.64 2200.2 1314.27 2202.77 1308.32 2197.22C1306.84 2195.84 1306.56 2193.19 1306.75 2190.77C1312.42 2182.64 1340.59 2185.67 1350.43 2185.56C1376.6 2185.17 1402.76 2185.01 1428.92 2185.1C1441.48 2185.09 1496.62 2184.16 1504.11 2186.82C1507.04 2192.07 1507.48 2192.15 1504.83 2197.96L1504.26 2199.22Z"/><path fill="#1D1D1C" d="M1504.11 2186.82C1508.56 2185.73 1523.78 2186.45 1529.5 2186.32C1547.42 2186.03 1565.39 2186.08 1583.32 2186.24C1584.48 2186.25 1588.43 2187.16 1589.15 2188.24C1595.44 2197.56 1587.3 2199.98 1582.44 2199.95C1567.89 2199.85 1555.26 2200.21 1540.88 2199.82C1533.95 2199.6 1509.58 2200.82 1504.26 2199.22L1504.83 2197.96C1507.48 2192.15 1507.04 2192.07 1504.11 2186.82Z"/><path fill="#717171" d="M1247.62 2191.56C1251.04 2191.5 1251.96 2188.34 1254.95 2190.46C1259.13 2193.47 1263.19 2185.07 1265.59 2195.76C1266.77 2201.02 1259.18 2198.69 1258.25 2198.89C1254.91 2199.62 1249.28 2198.62 1246.41 2199.06C1246.78 2196.55 1247.18 2194.05 1247.62 2191.56Z"/><path fill="#959493" d="M1286.32 2197.06C1287.69 2187.9 1288.42 2191.1 1294.24 2189.09C1294.24 2199.76 1294.27 2201 1286.32 2197.06Z"/><path fill="#959493" d="M1246.41 2199.06C1234.72 2199.34 1238.68 2186.59 1247.62 2191.56C1247.18 2194.05 1246.78 2196.55 1246.41 2199.06Z"/><path fill="#959493" d="M1266.08 2190.51C1268.8 2192.32 1268.09 2192.95 1271.14 2191.35C1271.65 2192.01 1272.04 2193.09 1272.64 2193.55C1273.24 2192.74 1273.39 2191.52 1274.23 2191.1L1274.44 2191.23C1274.77 2192.04 1274.8 2192.84 1274.87 2193.76L1275.06 2195.94C1270.09 2200.89 1272.46 2195.71 1269.6 2195.68C1268.58 2196.47 1268.16 2198.21 1267.02 2198.79L1266.46 2198.37C1265.74 2196.28 1266.07 2192.78 1266.08 2190.51Z"/><path fill="#959493" d="M1234.23 2187.11C1240.04 2188.27 1237.51 2188.16 1236.78 2197.58C1234.3 2198.54 1235.17 2191.27 1234.23 2187.11Z"/><path fill="#959493" d="M1281.27 2188.97C1289.48 2191.5 1280.16 2194.14 1285.31 2196.53L1286.32 2197.06C1281.72 2203.02 1281.33 2193.14 1281.27 2188.97Z"/><path fill="#959493" d="M1277.24 2192.56C1278.72 2192.03 1278.84 2192.42 1278.56 2194.53L1278.36 2196.15C1276.15 2197.01 1276.65 2196.72 1276.86 2194.35L1277.24 2192.56Z"/><path fill="#386D5A" d="M1487.42 1694.83C1507.15 1693.4 1529.1 1694.78 1549.06 1694.23C1563.92 1694.42 1578.89 1693.66 1593.74 1694.61C1599.33 1694.97 1607.98 1699.53 1609.53 1707.73C1612.29 1722.31 1605.54 1726.53 1596.91 1730.41C1584.59 1732.51 1493.02 1733.12 1484.76 1729.29C1480.77 1727.43 1476.39 1723.23 1474.75 1717.78C1473.6 1713.97 1474.03 1710.25 1475.33 1706.66C1477.89 1699.55 1482.17 1697.22 1487.42 1694.83Z"/><path fill="#CCD8D0" d="M1520.89 1715.76C1506.71 1731.27 1505.47 1694.21 1521.06 1709.49C1520.88 1711.82 1520.9 1713.41 1520.89 1715.76Z"/><path fill="#386D5A" d="M1513.16 1709.53C1514.04 1708.55 1515.25 1708.32 1516.29 1708.91C1517.34 1709.5 1518.06 1710.84 1518.17 1712.37C1518.27 1713.9 1517.74 1715.39 1516.8 1716.24C1515.43 1717.46 1513.6 1717.01 1512.63 1715.22C1511.67 1713.44 1511.9 1710.93 1513.16 1709.53Z"/><path fill="#CCD8D0" d="M1523.11 1706.57C1527.12 1706.75 1527.37 1712.06 1529.45 1712.43C1529.89 1712.01 1530.22 1711.31 1530.19 1710.63C1530.08 1708.3 1530.95 1704.94 1532.65 1707.95C1533 1708.56 1533.22 1717.46 1532.17 1718.57C1529.94 1720.94 1527.37 1713.2 1525.59 1712.76C1524.96 1713.09 1525.16 1715.28 1525.07 1715.94C1524.88 1717.35 1524.03 1718.76 1523.5 1719.87C1522.6 1718.25 1521.9 1717.25 1520.89 1715.76C1520.9 1713.41 1520.88 1711.82 1521.06 1709.49C1521.75 1708.53 1522.43 1707.56 1523.11 1706.57Z"/><path fill="#60776E" d="M1521.06 1709.49C1521.75 1708.53 1522.43 1707.56 1523.11 1706.57C1522.74 1713.05 1522.59 1713.61 1523.5 1719.87C1522.6 1718.25 1521.9 1717.25 1520.89 1715.76C1520.9 1713.41 1520.88 1711.82 1521.06 1709.49Z"/><path fill="#60776E" d="M1580.44 1706.53C1582.98 1708.84 1582.34 1708.38 1584.34 1705.36C1583.37 1711.05 1583.64 1712.24 1583.78 1718.44C1581 1716.99 1581.17 1722.26 1574.91 1718.41C1576.32 1716.99 1576.9 1717.16 1576.37 1714.79C1578.34 1710.41 1576.68 1709.17 1579.29 1706.65L1580.44 1706.53Z"/><path fill="#CCD8D0" d="M1580.44 1706.53C1583.81 1721.89 1576.38 1722.72 1579.29 1706.65L1580.44 1706.53Z"/><path fill="#CCD8D0" d="M1584.34 1705.36L1585.4 1706.45C1586.99 1707.99 1588.73 1711.87 1589.86 1712.35C1590.78 1711.88 1590.38 1710.59 1590.72 1709.4C1593.43 1699.99 1594.48 1716.04 1593.2 1718.13C1590.97 1721.77 1588.81 1713.77 1586.73 1713.41C1585.38 1714.87 1587.43 1719.68 1583.78 1718.44C1583.64 1712.24 1583.37 1711.05 1584.34 1705.36Z"/><path fill="#CCD8D0" d="M1555.83 1706.09C1558.89 1709.21 1556.96 1713.11 1561.01 1711.9C1562.52 1711.45 1562.49 1709.17 1562.98 1708.42C1567.38 1701.71 1565.37 1717.84 1565.13 1719.82C1561.71 1717.34 1563.8 1716.18 1561.61 1713.98C1558.16 1710.51 1557.12 1721.16 1555.23 1717.94C1554.1 1716.02 1555.15 1708.72 1555.83 1706.09Z"/><path fill="#CCD8D0" d="M1568.94 1711.61C1571.85 1700.76 1574.57 1709.36 1576.37 1714.79C1576.9 1717.16 1576.32 1716.99 1574.91 1718.41C1570.8 1714.8 1571.32 1717.26 1566.72 1718.3L1568.94 1711.61Z"/><path fill="#CCD8D0" d="M1545.88 1706.22C1548.38 1706.48 1550.91 1706.03 1552.71 1708.73L1552.79 1709.82L1552.95 1709.83C1551.46 1711.83 1546.05 1705.91 1545.77 1712.35C1545.61 1716.07 1547.29 1717.13 1549.67 1716.72L1550.93 1716.54C1553.66 1712.63 1553.16 1719.11 1549.07 1718.94C1542.13 1718.65 1540.89 1712.83 1545.88 1706.22Z"/><path fill="#CCD8D0" d="M1498.28 1706.09C1501.58 1709.77 1494.11 1716.05 1492.23 1719.54C1491.95 1720.07 1488.46 1717.81 1487.75 1717.47C1484.91 1710.91 1491.18 1715.21 1491.35 1715.12C1493.59 1714.02 1496.53 1708.7 1498.28 1706.09Z"/><path fill="#A3B9AF" d="M1533.31 1712.96C1535.93 1712.42 1538.45 1710.75 1539.89 1714.07C1536.78 1715.79 1536.03 1715.41 1533.31 1712.96Z"/><path fill="#BFC0BF" d="M1362.32 1702.99C1363.02 1704.44 1363.2 1704.6 1364.13 1705.81C1370.94 1701 1373.82 1700.75 1379.01 1708.55C1378.85 1709.94 1378.98 1711.53 1379.04 1712.96C1373.97 1722.17 1369.61 1721.98 1363.24 1714.33C1362.26 1712.73 1361.69 1711.73 1360.79 1710.03C1361.77 1706.73 1361.88 1706.46 1362.32 1702.99Z"/><path fill="#444" d="M1362.32 1702.99C1363.02 1704.44 1363.2 1704.6 1364.13 1705.81C1364.06 1708.72 1363.51 1711.21 1363.24 1714.33C1362.26 1712.73 1361.69 1711.73 1360.79 1710.03C1361.77 1706.73 1361.88 1706.46 1362.32 1702.99Z"/><path fill="#1D1D1C" d="M1368.24 1707.09C1369.38 1705.64 1371.03 1705.19 1372.49 1705.93C1373.95 1706.66 1374.98 1708.46 1375.15 1710.57C1375.31 1712.68 1374.59 1714.73 1373.27 1715.87C1371.48 1717.42 1369.11 1716.86 1367.81 1714.59C1366.51 1712.31 1366.69 1709.07 1368.24 1707.09Z"/><path fill="#BFC0BF" d="M1255.94 1706.09C1262.35 1700.8 1265.91 1700.52 1271.08 1708.21C1271.71 1708.17 1271.72 1708.08 1272.32 1707.8C1272.64 1710.83 1272.75 1710.94 1272.3 1713.82C1271.07 1714.15 1271.17 1714 1270.27 1715C1264.48 1722.38 1261.79 1720.55 1255.63 1715.39C1255.42 1710.92 1255.45 1710.48 1255.94 1706.09Z"/><path fill="#717171" d="M1271.08 1708.21C1271.71 1708.17 1271.72 1708.08 1272.32 1707.8C1272.64 1710.83 1272.75 1710.94 1272.3 1713.82C1271.07 1714.15 1271.17 1714 1270.27 1715C1270.42 1712.4 1270.69 1710.75 1271.08 1708.21Z"/><path fill="#1D1D1C" d="M1261.22 1705.93C1262.58 1705 1264.19 1705.14 1265.45 1706.29C1266.71 1707.44 1267.41 1709.43 1267.28 1711.48C1267.15 1713.53 1266.22 1715.33 1264.84 1716.18C1262.76 1717.45 1260.32 1716.24 1259.34 1713.45C1258.35 1710.67 1259.19 1707.32 1261.22 1705.93Z"/><path fill="#BFC0BF" d="M1323.11 1714.19C1319.51 1718.92 1314.88 1722.66 1310.13 1717.86C1308.75 1716.47 1307.86 1714.38 1307.67 1712.07C1306.62 1700.41 1316.72 1699.77 1322.98 1707.78C1322.67 1711.08 1322.61 1711.01 1323.11 1714.19Z"/><path fill="#1D1D1C" d="M1313.49 1705.81C1314.92 1704.95 1316.58 1705.24 1317.8 1706.56C1319.03 1707.88 1319.61 1710 1319.33 1712.09C1319.04 1714.17 1317.93 1715.87 1316.44 1716.5C1314.3 1717.4 1312.02 1715.89 1311.24 1713.05C1310.45 1710.2 1311.44 1707.03 1313.49 1705.81Z"/><path fill="#BFC0BF" d="M1272.32 1707.8C1277.45 1699.59 1282.38 1701.27 1287.94 1707.6C1287.77 1710.73 1287.78 1711.71 1287.9 1714.85C1283.15 1720.41 1277.65 1722.65 1273.2 1715.27L1272.3 1713.82C1272.75 1710.94 1272.64 1710.83 1272.32 1707.8Z"/><path fill="#1D1D1C" d="M1278.56 1705.74C1280.72 1704.74 1283.07 1706.27 1283.85 1709.17C1284.63 1712.08 1283.55 1715.29 1281.43 1716.42C1280.02 1717.16 1278.41 1716.81 1277.24 1715.5C1276.07 1714.19 1275.52 1712.12 1275.79 1710.09C1276.06 1708.07 1277.12 1706.4 1278.56 1705.74Z"/><path fill="#EAE9E5" d="M1239.72 1706.09C1240.81 1704.46 1240.72 1704.52 1241.5 1702.44C1248.77 1702.82 1248.82 1701.07 1254.51 1706.26L1255.94 1706.09C1255.45 1710.48 1255.42 1710.92 1255.63 1715.39C1255.02 1717.34 1255.02 1717.56 1254.24 1719.11C1248.04 1719.27 1248.56 1712.55 1245.98 1713.48C1243.89 1716.29 1247.07 1718.54 1241.43 1719.67C1240.83 1716.25 1241.05 1712.58 1239.94 1709.98L1239.72 1706.09Z"/><path fill="#444" d="M1254.51 1706.26L1255.94 1706.09C1255.45 1710.48 1255.42 1710.92 1255.63 1715.39C1255.02 1717.34 1255.02 1717.56 1254.24 1719.11C1250.23 1711.55 1251.29 1714.34 1254.51 1706.26Z"/><path fill="#444" d="M1239.72 1706.09C1240.81 1704.46 1240.72 1704.52 1241.5 1702.44C1241.98 1708.41 1241.83 1713.72 1241.43 1719.67C1240.83 1716.25 1241.05 1712.58 1239.94 1709.98L1239.72 1706.09Z"/><path fill="#1D1D1C" d="M1245.81 1705.93C1246.52 1704.71 1247.8 1704.47 1248.73 1705.37C1249.65 1706.27 1249.89 1708 1249.27 1709.29C1248.84 1710.18 1248.09 1710.68 1247.31 1710.59C1246.53 1710.5 1245.85 1709.84 1245.54 1708.87C1245.22 1707.89 1245.33 1706.77 1245.81 1705.93Z"/><path fill="#EAE9E5" d="M1379.01 1708.55C1380.21 1706.25 1379.49 1705.39 1380.44 1702.72C1383.66 1702.79 1389.76 1701.74 1391.99 1705.33C1394.93 1710.08 1388.76 1712.18 1391.97 1716.6C1393.01 1719.23 1390.83 1719.99 1389.65 1718.81C1388.96 1718.11 1385.68 1710.64 1384.71 1713.55C1383.11 1718.38 1385.01 1716.99 1381.52 1720.96C1379.28 1716.79 1380.47 1717.3 1379.04 1712.96C1378.98 1711.53 1378.85 1709.94 1379.01 1708.55Z"/><path fill="#444" d="M1379.01 1708.55C1380.21 1706.25 1379.49 1705.39 1380.44 1702.72C1381.38 1709.75 1380.3 1713.17 1381.52 1720.96C1379.28 1716.79 1380.47 1717.3 1379.04 1712.96C1378.98 1711.53 1378.85 1709.94 1379.01 1708.55Z"/><path fill="#1D1D1C" d="M1385.12 1705.79C1385.9 1704.94 1387.01 1704.92 1387.8 1705.74C1388.59 1706.56 1388.87 1708.02 1388.46 1709.26C1388.1 1710.37 1387.27 1711.07 1386.37 1711.01C1385.48 1710.95 1384.7 1710.14 1384.42 1708.98C1384.15 1707.82 1384.42 1706.55 1385.12 1705.79Z"/><path fill="#EAE9E5" d="M1342.53 1695.98C1344.16 1700.36 1346.45 1706.96 1347.97 1711.74C1348 1711.83 1348.28 1711.86 1348.41 1711.76C1349.15 1711.21 1349.61 1709.12 1349.84 1708.14C1350.08 1707.1 1350.45 1704.16 1351.15 1703.25C1351.48 1702.83 1352.33 1702.44 1352.81 1702.7C1353.89 1703.3 1354.45 1705.43 1354.8 1706.77C1355.21 1708.36 1355.44 1710.45 1356.47 1711.56C1356.55 1711.6 1356.64 1711.64 1356.73 1711.68C1357.2 1711.2 1357.67 1709.39 1357.88 1708.68C1358.2 1707.34 1358.52 1706.01 1359.09 1704.82C1359.88 1703.18 1360.94 1703.24 1362.32 1702.99C1361.88 1706.46 1361.77 1706.73 1360.79 1710.03C1360.12 1712.9 1359.24 1720 1356.44 1719.59C1353.85 1719.22 1352.94 1706.84 1351.15 1713.56C1350.66 1715.43 1349.8 1721.72 1346.56 1718.46C1343.85 1714.49 1342.84 1701.27 1342.53 1695.98Z"/><path fill="#BFC0BF" d="M1287.94 1707.6C1288.71 1705.69 1289 1704.68 1289.6 1702.58C1292.07 1702.68 1297.81 1702.1 1300.08 1703.59C1300.17 1703.65 1300.21 1704.17 1300.16 1704.32C1299.73 1705.69 1297.52 1705.56 1296.77 1705.62C1295.48 1705.73 1294.39 1706.03 1293.17 1706.35C1296.02 1706.79 1303.25 1705.51 1299.23 1709.48C1301.64 1713.72 1294.46 1711.31 1293.74 1713C1292.11 1716.84 1294.68 1718.99 1290.2 1719.59C1289.31 1717.51 1288.99 1716.77 1287.9 1714.85C1287.78 1711.71 1287.77 1710.73 1287.94 1707.6Z"/><path fill="#444" d="M1287.94 1707.6C1288.71 1705.69 1289 1704.68 1289.6 1702.58C1290.12 1708.21 1289.78 1713.43 1290.2 1719.59C1289.31 1717.51 1288.99 1716.77 1287.9 1714.85C1287.78 1711.71 1287.77 1710.73 1287.94 1707.6Z"/><path fill="#1D1D1C" d="M1293.17 1706.35C1296.02 1706.79 1303.25 1705.51 1299.23 1709.48C1295.99 1709.44 1294.05 1710.79 1293.17 1706.35Z"/><path fill="#EAE9E5" d="M1239.94 1709.98C1236.72 1712.78 1235.5 1713.16 1231.76 1714.12C1230.87 1714.35 1231.41 1718.21 1230.18 1718.98C1228.96 1719.75 1228.14 1718.7 1227.75 1717.12C1227.61 1713.51 1227 1707.12 1228.1 1703.75C1228.29 1703.18 1229.28 1702.6 1229.69 1702.61C1234.85 1702.25 1235.9 1702.19 1239.72 1706.09L1239.94 1709.98Z"/><path fill="#1D1D1C" d="M1231.64 1705.97C1232.46 1704.85 1233.77 1704.76 1234.67 1705.76C1235.57 1706.75 1235.76 1708.51 1235.12 1709.83C1234.65 1710.8 1233.8 1711.32 1232.95 1711.17C1232.1 1711.02 1231.38 1710.23 1231.1 1709.13C1230.83 1708.02 1231.03 1706.8 1231.64 1705.97Z"/><path fill="#BFC0BF" d="M1322.98 1707.78C1323.6 1705.77 1323.66 1704.46 1324.36 1702.54C1326.28 1702.61 1334.86 1701.82 1335.41 1704.04C1334.83 1707.78 1329.84 1702.85 1328.12 1707.64C1328.34 1711.01 1332.77 1709.08 1334.41 1710.68C1335.61 1714.63 1327.05 1709.3 1328.2 1716.56C1328.55 1718.75 1327.22 1719.4 1325.55 1718.99C1324.55 1716.5 1324.49 1716.37 1323.11 1714.19C1322.61 1711.01 1322.67 1711.08 1322.98 1707.78Z"/><path fill="#444" d="M1322.98 1707.78C1323.6 1705.77 1323.66 1704.46 1324.36 1702.54C1325.21 1708.4 1324.64 1712.35 1325.55 1718.99C1324.55 1716.5 1324.49 1716.37 1323.11 1714.19C1322.61 1711.01 1322.67 1711.08 1322.98 1707.78Z"/><path fill="#BFC0BF" d="M1395.57 1701.93C1397.15 1702.72 1398.81 1703.07 1398.91 1705.85C1399.17 1712.65 1402.63 1702.59 1406.29 1702.78C1408.61 1704.66 1403.3 1707.74 1403.59 1710.03C1403.88 1712.37 1406.34 1715.56 1407.42 1717.39C1406.47 1723.37 1402.54 1713.33 1400.47 1712.96C1397.96 1712.5 1399.04 1722.15 1396.23 1718.9C1394.58 1717 1395.43 1704.84 1395.57 1701.93Z"/><path fill="#BFC0BF" d="M196.192 1396.92C216.129 1395.03 249.433 1396.54 270.549 1396.52L412.136 1396.48L509.36 1396.44C533.144 1396.41 563.164 1391.59 584.253 1407.61C607.42 1425.22 602.087 1463.4 602.124 1494.85L602.2 1598.98L602.227 1794.81C602.285 1830.45 602.349 1866.1 602.243 1901.74C602.146 1934.38 583.889 1947.02 562.74 1952.76C550.484 1954.55 517.914 1953.38 504.158 1953.37L387.952 1953.28L260.967 1953.31C240.236 1953.33 219.652 1953.81 198.766 1953.01C183.17 1952.42 158.121 1934.67 156.301 1911.93C154.9 1894.43 155.769 1871.65 155.789 1853.52L155.913 1728.3L155.859 1540.2C155.829 1507.42 155.315 1474.21 156.223 1441.5C156.982 1414.15 178.981 1400.72 196.192 1396.92Z"/><path fill="#EAE9E5" d="M197.099 1402.89C215.212 1401.21 243.432 1402.47 262.569 1402.49L389.087 1402.61L502.428 1402.44C521.285 1402.46 540.572 1401.98 559.319 1403.24C573.519 1404.19 592.729 1417.22 594.71 1438.23C596.593 1458.2 595.917 1478.93 595.86 1499.08L595.674 1600.95L595.954 1798.74C596.01 1833.15 596.169 1867.53 595.879 1901.93C595.627 1931.85 579.314 1942.16 560.219 1947.15C487.12 1949.27 408.754 1947.36 335.286 1947.46L247.612 1947.56C225.728 1947.58 170.482 1956.1 163.22 1914.17C160.482 1898.37 161.77 1864.8 161.78 1847.08L161.85 1729.45L161.816 1542.24C161.785 1509.79 161.517 1477.11 161.975 1444.66C162.345 1418.51 180.443 1407.13 197.099 1402.89Z"/><path fill="#1D1D1C" d="M497.066 1529.87C506.939 1528.13 546.418 1526.24 552.242 1535.59C553.275 1541.33 553.861 1547.2 553.989 1553.11C554.714 1581.5 555.304 1780.22 553.336 1786.87C552.002 1791.37 548.089 1793.49 545.109 1795.38C534.225 1796.83 496.966 1799.05 489.936 1789.02C488.885 1783.42 488.283 1777.68 488.143 1771.91C487.564 1751.7 486.768 1547.38 488.685 1539.22C489.832 1534.34 494.03 1532.05 497.066 1529.87Z"/><path fill="#EAE9E5" d="M498.42 1532.18C510.28 1531.98 541.772 1528.88 549.656 1537.39C550.644 1542.92 551.104 1549.36 551.116 1555.09C551.259 1624.03 551.098 1692.99 551.228 1761.94C551.242 1769.41 551.419 1777.42 550.727 1784.59C550.366 1788.32 545.55 1791.5 543.486 1793L527.643 1793.23C518.085 1793.35 499.425 1795.95 492.761 1787.07C489.631 1771.36 491.048 1732.47 491.066 1714.82L490.998 1617.6C490.976 1594.28 490.578 1564.11 491.417 1540.27C491.54 1536.76 496.134 1533.78 498.42 1532.18Z"/><path fill="#1D1D1C" d="M404.216 1569.03C410.311 1567.89 420.189 1567.97 426.58 1568.08C436.468 1568.24 454.083 1565.16 460.985 1575.74C461.989 1580.81 462.628 1587.35 462.642 1592.68C462.789 1649.77 462.678 1706.89 462.782 1763.98C462.795 1771.21 463.119 1779.04 461.941 1785.89C461.167 1790.39 456.588 1793.25 454.202 1794.9C444.185 1797.28 429.587 1795.8 419.044 1796.04C402.465 1796.41 396.702 1794.07 396.767 1771.29C396.951 1706.99 395.974 1642.8 397.119 1578.59C397.192 1574.55 402.048 1570.78 404.216 1569.03Z"/><path fill="#386D5A" d="M406.58 1571.24C416.35 1571.07 452.591 1567.86 457.754 1576.3C459.064 1581.53 459.568 1586.81 459.718 1592.3C460.236 1611.17 460.774 1780.43 458.61 1785.97C457.007 1790.06 454.699 1790.98 451.667 1792.19C437.091 1793.73 421.617 1793.23 407.01 1792.36C404.751 1790.41 402.031 1788.47 400.561 1785.36C399.689 1783.52 398.164 1588.36 399.947 1579.76C400.916 1575.08 403.678 1573.36 406.58 1571.24Z"/><path fill="#1D1D1C" d="M315.013 1630.54C315.632 1630.49 316.252 1630.45 316.872 1630.43C327.808 1630.08 368.404 1627.77 369.433 1636.57C373.756 1673.52 371.864 1747.52 370.454 1787.51C370.333 1790.94 363.299 1794.84 361.897 1795.64C351.303 1795.8 313.502 1799.45 307.687 1789.21C301.487 1761.07 308.189 1692.25 305.747 1660C305.398 1655.4 306.028 1648.67 306.033 1643.89C306.042 1635.9 310.354 1633.58 315.013 1630.54Z"/><path fill="#EAE9E5" d="M317.151 1633.21C328.149 1633.09 358.865 1630.26 366.205 1638.11C372.641 1660.39 367.193 1756.91 367.884 1785.63C367.96 1788.8 361.911 1792.08 360.002 1793.05C347.421 1793.14 319.005 1796.33 310.229 1787.63C307.078 1770.89 308.754 1665.2 309.406 1640.21C309.476 1637.52 314.984 1634.36 317.151 1633.21Z"/><path fill="#1D1D1C" d="M225.524 1703.31C288.339 1702.25 280.457 1694.15 278.308 1786.6C278.226 1790.12 270.661 1794.68 268.457 1795.75C255.292 1796.09 230.378 1798.06 218.167 1792.73C209.043 1788.74 215.33 1729.33 213.481 1717.11C212.364 1709.73 220.575 1704.73 225.524 1703.31Z"/><path fill="#EAE9E5" d="M223.795 1706.7C230.219 1706.31 274.104 1702.72 275.08 1713.3C276.973 1733.84 275.865 1763.1 275.631 1784.66C275.599 1787.59 270.265 1791.34 268.666 1792.43C262.372 1793.2 217.584 1797.05 217.247 1785.8C216.581 1763.49 216.239 1736.34 217.23 1713.68C217.349 1710.96 222.357 1707.65 223.795 1706.7Z"/><path fill="#1D1D1C" d="M378.546 1853.95C409.726 1853.14 417.619 1895.27 384.562 1903.25C352.499 1903.61 345.874 1862.29 378.546 1853.95Z"/><path fill="#386D5A" d="M376.847 1857.59C402.535 1854.55 415.358 1886.86 386.795 1899.63C358.281 1902.54 349.254 1867.39 376.847 1857.59Z"/><path fill="#EAE9E5" d="M392.548 1868.64C392.914 1868.84 396.222 1870.8 395.18 1872.16C389.931 1879 383.061 1886.82 377.243 1892.8C374.874 1890.48 372.511 1888.43 370.475 1885.61C369.028 1883.94 366.886 1882.16 366.064 1879.73L366.694 1877.91C371.83 1877.08 373.503 1880.59 377.654 1885.08C382.778 1879.03 387.22 1874.27 392.548 1868.64Z"/><path fill="#1D1D1C" d="M253.044 1854.07C284.031 1854.48 290.419 1894.01 258.894 1902.83C225.941 1902.25 221.216 1862.23 253.044 1854.07Z"/><path fill="#EAE9E5" d="M250.689 1857.52C259.965 1856.63 272.4 1859.46 275.831 1873.28C276.901 1877.52 276.645 1882.18 275.123 1886.16C271.995 1894.28 266.3 1896.97 260.29 1899.44C234.415 1902.81 223.235 1868.73 250.689 1857.52Z"/><path fill="#1D1D1C" d="M499.13 1855.06C529.72 1850.47 543.199 1886.7 513.547 1901.87C482.464 1908.12 468.495 1868.6 499.13 1855.06Z"/><path fill="#EAE9E5" d="M501.788 1857.47C529.542 1855.72 537.576 1890.24 509.635 1899.67C483.054 1901.24 474.281 1867.14 501.788 1857.47Z"/><path fill="#1D1D1C" d="M233.466 1457.97C215.385 1481.22 208.547 1436.88 231.116 1448.86L232.642 1447.75C235.146 1449.73 234.924 1449.47 237.956 1449.55L236.655 1450.02C231.887 1451.41 234.538 1451.79 233.466 1457.97Z"/><path fill="#BFC0BF" d="M231.116 1448.86L232.642 1447.75C235.146 1449.73 234.924 1449.47 237.956 1449.55L236.655 1450.02C231.887 1451.41 234.538 1451.79 233.466 1457.97C232.7 1454.75 232.08 1452.02 231.116 1448.86Z"/><path fill="#EAE9E5" d="M222.338 1450.5C224.392 1448.76 227.096 1449.59 228.394 1452.37C229.692 1455.14 229.097 1458.82 227.062 1460.6C225.006 1462.4 222.263 1461.58 220.952 1458.78C219.641 1455.98 220.263 1452.26 222.338 1450.5Z"/><path fill="#386D5A" d="M554.53 1436.14C554.751 1436.28 557.701 1438.05 557.433 1438.8C553.847 1448.93 542.971 1469.77 538.065 1477.66C535.686 1473.29 533.557 1468.93 531.355 1464.4C531.024 1463.8 525.33 1455.18 530.686 1455.74C532.426 1455.92 537.026 1466.17 538.427 1468.87C543.669 1458.22 549.188 1446.41 554.53 1436.14Z"/><path fill="#1D1D1C" d="M248.679 1446.24C252.449 1446.45 256.694 1444.87 259.134 1448.46L257.486 1455.27C255.956 1458.12 253.537 1455.77 252.86 1456.71C247.866 1463.63 259.443 1460.31 258.936 1463.51C257.496 1465.1 250.801 1464.71 248.336 1464.82C248.359 1458.35 248.314 1452.73 248.679 1446.24Z"/><path fill="#444" d="M248.679 1446.24C252.449 1446.45 256.694 1444.87 259.134 1448.46C256.112 1450.37 255.598 1449.9 252.063 1450.09C250.753 1447.38 250.907 1447.47 248.679 1446.24Z"/><path fill="#EAE9E5" d="M259.134 1448.46L257.486 1455.27C253.809 1452.09 252.667 1456.7 252.063 1450.09C255.598 1449.9 256.112 1450.37 259.134 1448.46Z"/><path fill="#1D1D1C" d="M201.769 1446.02C206.624 1448.1 206.553 1453.57 208.571 1460.12C209.215 1457.97 211.629 1448.66 212.576 1447.49C213.079 1446.86 213.768 1446.58 214.444 1446.73C215.779 1447.02 215.611 1448.43 215.243 1449.7C214.082 1452.85 210.988 1463.03 209.557 1464.19C205.649 1467.36 201.712 1449.12 201.769 1446.02Z"/><path fill="#1D1D1C" d="M232.642 1447.75C234.621 1447.05 246.295 1444.89 246.323 1448.45C245.413 1450.24 242.211 1449.35 241.831 1450.36C240.444 1454.03 243.181 1462.23 240.097 1464.5C237.344 1464.46 238.178 1452.82 237.956 1449.55C234.924 1449.47 235.146 1449.73 232.642 1447.75Z"/><path fill="#BFC0BF" d="M199.569 175.09C221.218 173.65 250.84 174.63 272.828 174.603L415.652 174.714L509.177 174.863C524.349 174.905 540.38 174.301 555.413 175.632C572.584 177.094 596.469 194.129 597.215 220.101C597.862 242.612 597.35 266.427 597.347 289.06L597.273 437.318L597.32 589.706C597.422 617.756 597.623 645.557 597.254 673.609C596.812 707.26 574.696 721.513 552.781 723.725C530.257 724.802 502.617 723.807 479.842 723.778L336.352 723.662L245.593 723.834C222.225 723.875 190.056 729.137 170.116 710.219C164.645 705.029 156.316 691.102 155.985 681.634C155.265 661.098 155.439 640.169 155.361 619.542L155.623 470.343L155.565 301.384C155.566 274.283 154.682 244.351 156.021 217.46C157.335 191.064 182.04 177.337 199.569 175.09Z"/><path fill="#EAE9E5" d="M198.845 181.004C224.186 180.423 251.052 181.151 276.5 181.19L426.813 181.232L508.381 181.113C548.066 180.932 596.898 171.772 591.845 244.084C591.361 251.005 591.93 262.587 591.952 270.067L591.787 407.374L591.887 586.664C591.861 614.689 591.736 642.764 591.591 670.779C591.435 700.83 577.615 711.131 557.663 717.261C541.415 719.004 515.664 718.062 498.538 718.078L383.743 717.872L265.663 718.098C243.183 718.15 220.666 718.586 198.157 717.353C184.171 716.587 164.922 702.91 162.197 682.874C160.283 668.802 161.142 648.163 161.131 633.505L161.114 545.565L161.244 333.433C161.278 300.061 161.108 266.597 161.272 233.232C161.807 226.336 161.138 215.169 163.722 209.1C171.365 191.151 184.771 183.567 198.845 181.004Z"/><path fill="#386D5A" d="M210.695 619.004C227.1 617.617 252.701 618.648 269.591 618.674L374.328 618.553L481.643 618.539C500.077 618.553 518.633 618.211 537.046 618.963C574.795 620.504 583.176 675.957 542.25 687.281C530.102 688.588 507.671 687.712 494.817 687.719L403.533 687.716L281.662 687.662C265.676 687.653 211.647 690.838 198.919 682.536C173.001 665.632 178.713 628.378 210.695 619.004Z"/><path fill="#1D1D1C" d="M317.394 329.007L437.264 329.152L437.343 432.023L317.166 432.015L317.394 329.007Z"/><path fill="#EAE9E5" d="M321.972 333.397L432.976 333.453L433.119 427.492L321.89 427.466L321.972 333.397Z"/><path fill="#1D1D1C" d="M371.885 357.672C378.681 356.53 385.325 356.362 390.364 363.92C391.882 366.201 392.667 369.209 392.547 372.278C392.311 377.384 390.163 380.058 387.42 383.224L386.136 384.773L386.781 387.649L387.257 389.693C389.284 398.682 392.779 402.746 385.219 402.712C378.404 402.705 371.59 402.777 364.777 402.928C366.112 396.87 367.283 390.736 368.555 384.643C366.39 381.602 364.614 381.314 363.024 377.035C362.025 374.341 361.896 371.204 362.668 368.376C364.181 362.824 368.296 360.155 371.885 357.672Z"/><path fill="#959493" d="M275.145 485.494C279.171 487.777 319.246 486.831 326.111 486.829L484.483 486.763L532.519 486.732C540.099 486.705 562.014 484.272 566.8 491.474C566.095 493.327 564.913 495.912 563.41 495.975C483.924 499.299 349.621 494.046 275.082 496.963C276.189 492.082 276.293 490.304 275.145 485.494Z"/><path fill="#BFC0BF" d="M239.962 540.577C257.192 539.066 285.411 540.397 303.558 540.424L430.824 540.583L483.226 540.454C489.791 540.388 509.964 537.437 513.106 544.83C511.848 548.765 512.739 546.922 509.402 549.714C485.806 548.954 461.478 549.55 437.779 549.48L320.976 549.239C311.271 549.297 243.818 551.344 239.607 547.793C238.512 543.528 238.72 545.824 239.962 540.577Z"/><path fill="#386D5A" d="M233.435 486.743C242.091 463.194 267.898 463.073 275.145 485.494C276.293 490.304 276.189 492.082 275.082 496.963C269.824 509.434 261.764 514.013 251.12 512.182C246.232 511.341 239.111 507.531 236.449 501.553C233.807 495.621 232.468 497.228 227.455 496.76C232.339 495.831 233.915 497.722 233.614 491.076L233.435 486.743Z"/><path fill="#BFC0BF" d="M302.955 567.943C303.804 567.895 304.653 567.853 305.503 567.818C350.774 565.881 397.241 568.6 442.605 567.62C444.586 567.577 446.008 568.291 447.45 570.133C448.175 574.332 448.12 572.15 446.885 576.874C400.138 578.485 352.599 576.451 305.795 576.876C304.636 576.887 303.479 575.787 302.589 574.902C301.632 570.514 301.686 572.762 302.955 567.943Z"/><path fill="#1D1D1C" d="M369.921 244.919C392.82 242.433 419.661 255.317 426.923 288.002C428.084 293.229 428.229 311.792 426.399 316.379C417.084 311.647 436.15 263.212 384.085 249.76C351.97 245.212 328.377 269.525 330.52 312.339C330.632 314.575 329.067 315.724 327.84 316.613L326.665 314.868C320.679 272.779 343.275 251.936 369.921 244.919Z"/><path fill="#1D1D1C" d="M227.455 496.76C220.046 496.477 190.833 497.819 187.815 494.87C174.924 482.281 232.217 486.767 233.435 486.743L233.614 491.076C233.915 497.722 232.339 495.831 227.455 496.76Z"/><path fill="#1D1D1C" d="M883.476 1762.27C889.099 1761.81 893.038 1761.91 896.532 1768.64C897.7 1777.4 894.354 1778.87 889.05 1781.91L888.983 1874.14C888.976 1888.45 887.824 1925.64 890.754 1937.41C909.081 2011.05 981.694 1998.85 1024.33 1998.84L1159.46 1998.72C1160.26 1997.34 1161.4 1995.42 1162.36 1994.28C1164.91 1991.34 1168.29 1990.07 1171.6 1990.82C1175.33 1991.7 1177.76 1995.74 1179.87 1999.5C1177.45 2007.46 1173.94 2011.33 1167.22 2010.15C1165.25 2009.81 1160.42 2003.32 1159.45 2003.23C1143.11 2001.78 1126.55 2002.4 1110.17 2002.4L972.211 2002.54C944.881 2002.5 919.96 1994.67 900.056 1967.67C881.478 1942.46 885.343 1904.97 885.365 1872.14L885.471 1782.39C881.124 1779.09 878.627 1777.42 878.128 1770.38C879.494 1765.83 880.441 1765.39 883.476 1762.27Z"/><path fill="#EAE9E5" d="M883.352 1765.77C889.922 1765.16 897.451 1766.39 891.609 1777.24C886.348 1778.56 877.854 1777.02 882.491 1767.62L883.352 1765.77Z"/><path fill="#EAE9E5" d="M1168.98 1993.76C1174.63 1996.01 1179.61 2000.72 1172.21 2006.23L1170.87 2007.28C1162.31 2005.12 1159.9 1998.67 1168.98 1993.76Z"/><path fill="#1D1D1C" d="M632.631 394.363C638.641 395.451 639.511 396.237 643.523 402.529L762.904 402.392C804.435 402.233 854.22 392.955 886.337 434.964C907.276 462.352 903.108 494.441 902.974 530.375L902.891 613.218C907.792 616.613 912.291 618.481 909.77 627.862C904.305 636.39 898.078 634.426 892.069 628.293C891.323 624.319 891.384 624.597 892.041 620.562C894.134 616.399 895.91 615.72 899.332 613.275L899.471 531.44C899.524 517.411 900.857 480.32 897.664 468.095C878.371 394.241 810.194 406.078 766.112 406.108L643.845 406.217C632.718 425.945 613.021 403.424 632.631 394.363Z"/><path fill="#EAE9E5" d="M632.466 397.69C639.155 399.532 644.238 405.185 635.932 410.385L634.583 411.264C632.129 410.414 629.542 409.859 628.034 406.781C627.521 405.744 627.364 404.456 627.602 403.249C628.143 400.494 630.813 398.878 632.466 397.69Z"/><path fill="#EAE9E5" d="M898.068 617.352C903.085 617.725 911.455 619.933 905.062 628.507L903.96 630.062C898.464 629.794 891.827 627.093 897.271 618.622L898.068 617.352Z"/><path fill="#1D1D1C" d="M1158.2 1398.94C1165.97 1397.57 1167.52 1397.97 1172.62 1406.07L1283.98 1406.08C1324.15 1405.95 1372.59 1397.25 1403.77 1437.94C1424.12 1464.49 1420.1 1498.53 1420.03 1533.43L1419.98 1613.7C1435.18 1625.7 1423.7 1638.46 1410.52 1631.05C1408.2 1626.58 1407.87 1625.41 1408.93 1620.45C1411.45 1616.47 1412.46 1616.15 1416 1613.67L1416.06 1558.71C1416.08 1539.1 1417.84 1478.69 1412.71 1463.47C1391.3 1399.93 1330.76 1409.71 1288.38 1409.69L1172.9 1409.68C1162.54 1427.02 1145.05 1412.9 1158.2 1398.94Z"/><path fill="#EAE9E5" d="M1415.4 1617.25C1422.84 1617.85 1427.58 1622 1420.45 1630.26L1419.19 1630.17C1411.28 1629.66 1409.46 1624.92 1415.4 1617.25Z"/><path fill="#EAE9E5" d="M1159.04 1402.33C1166.26 1401.85 1171.76 1403.05 1166.61 1414.11C1159.78 1414.47 1152.91 1412.6 1159.04 1402.33Z"/><path fill="#1D1D1C" d="M642.229 1137.8C664.15 1136.73 653.892 1165.7 641.157 1156.27C634.991 1151.71 639.437 1149.47 628.986 1149.39C612.422 1149.26 596.005 1149.48 579.51 1149.5L481.925 1149.31C450.64 1149.23 418.301 1147.5 394.083 1180.78C387.613 1189.52 383.002 1200.47 380.737 1212.48C378.31 1225.55 379.058 1256.11 379.087 1271.02L379.255 1351.28C384.187 1354.18 384.526 1354.66 387.99 1360.15C383.237 1376.89 369.419 1373.98 368.024 1360.86C369.275 1352.68 373.369 1354.9 374.926 1348.47C377.032 1339.78 375.175 1328.78 375.657 1319.87C377.312 1289.26 372.353 1244.59 376.667 1215.59C378.045 1206.12 380.852 1197.14 384.91 1189.21C411.434 1136.91 467.49 1145.81 508.363 1145.83L601.109 1145.76C610.415 1145.73 627.254 1147.21 635.371 1145.08C638.173 1141.4 638.912 1140.58 642.229 1137.8Z"/><path fill="#EAE9E5" d="M377.118 1354.92C385.907 1358.42 385.745 1363.95 377.714 1368.83C372.066 1365.71 367.105 1359.76 375.614 1355.7L377.118 1354.92Z"/><path fill="#EAE9E5" d="M644.787 1140.88C650.527 1143.01 655.715 1148.76 648.15 1153.58L646.833 1154.47C640.917 1152.61 635.615 1147.03 643.365 1141.91L644.787 1140.88Z"/><path fill="#1D1D1C" d="M374.5 741.009C375.291 741.022 376.081 741.054 376.871 741.105C382.86 741.516 387.768 744.175 386.97 753.706C384.886 758.901 382.544 757.944 379.582 761.898C377.485 797.396 379.809 839.131 379.779 874.982C379.768 889.147 387.992 906.502 395.4 916.464C425.427 956.838 472.067 947.964 511.068 947.854L633.048 947.721C640.292 937.123 647.359 935.694 653.772 948.763C649.548 963.443 640.238 961.895 633.18 951.61L510.715 951.743C468.135 951.734 415.419 960.924 386.228 908.93C367.466 875.513 378.289 809.964 375.574 769.069C374.529 753.331 366.754 758.261 368.143 748.071C370.263 743.965 371.192 743.636 374.5 741.009Z"/><path fill="#EAE9E5" d="M642.139 942.699C650.337 944.859 653.189 949.56 645.1 956.18C638.718 954.807 632.508 948.925 640.738 943.669L642.139 942.699Z"/><path fill="#EAE9E5" d="M375.024 744.463C382.42 745.393 386.905 747.8 380.92 757.001C375.518 757.029 366.739 754.039 373.816 745.913L375.024 744.463Z"/></svg>